{"title":"Bayonetta.Bloody.Fate.2013.BRRip.XviD.AC3-playXD","uid":11544391,"size":1472291129,"categoryP":"video","categoryS":"movies","magnet":"?xt=urn:btih:4b6ccd0691c9c7570362ada356e203b62455486f&amp;dn=Bayonetta.Bloody.Fate.2013.BRRip.XviD.AC3-playXD&amp;tr=udp%3A%2F%2Ftracker.openbittorrent.com%3A80&amp;tr=udp%3A%2F%2Fopen.demonii.com%3A1337&amp;tr=udp%3A%2F%2Ftracker.coppersurfer.tk%3A6969&amp;tr=udp%3A%2F%2Fexodus.desync.com%3A6969","seeders":1,"leechers":0,"uploader":"TvTeam","files":4,"time":1416706745,"description":" &lt;a href=&quot;http://www.torrenting.com&quot; rel=&quot;nofollow&quot; target=&quot;_NEW&quot;&gt;http://www.torrenting.com&lt;/a&gt;\n\nSign up is OPEN - for time being. Come and have fun.\n\n------------------------------------------------------------------General\nComplete name                            : Bayonetta.Bloody.Fate.2013.BRRip.XviD.AC3-playXD.avi\nFormat                                   : AVI\nFormat/Info                              : Audio Video Interleave\nFile size                                : 1.37 GiB\nDuration                                 : 1h 30mn\nOverall bit rate                         : 2 169 Kbps\n\nVideo\nID                                       : 0\nFormat                                   : MPEG-4 Visual\nFormat profile                           : Advanced Simple@L5\nFormat settings, BVOP                    : 2\nFormat settings, QPel                    : No\nFormat settings, GMC                     : No warppoints\nFormat settings, Matrix                  : Default (H.263)\nCodec ID                                 : XVID\nCodec ID/Hint                            : XviD\nDuration                                 : 1h 30mn\nBit rate                                 : 1 777 Kbps\nWidth                                    : 720 pixels\nHeight                                   : 408 pixels\nDisplay aspect ratio                     : 16:9\nFrame rate                               : 23.976 fps\nColor space                              : YUV\nChroma subsampling                       : 4:2:0\nBit depth                                : 8 bits\nScan type                                : Progressive\nCompression mode                         : Lossy\nBits/(Pixel*Frame)                       : 0.252\nStream size                              : 1.12 GiB (82%)\nWriting library                          : XviD 1.2.1 (UTC 2008-12-04)\n\nAudio\nID                                       : 1\nFormat                                   : AC-3\nFormat/Info                              : Audio Coding 3\nMode extension                           : CM (complete main)\nFormat settings, Endianness              : Big\nCodec ID                                 : 2000\nDuration                                 : 1h 30mn\nBit rate mode                            : Constant\nBit rate                                 : 384 Kbps\nChannel(s)                               : 6 channels\nChannel positions                        : Front: L C R, Side: L R, LFE\nSampling rate                            : 48.0 KHz\nBit depth                                : 16 bits\nCompression mode                         : Lossy\nStream size                              : 248 MiB (18%)\nAlignment                                : Aligned on interleaves\nInterleave, duration                     : 64 ms (1.53 video frames)\nInterleave, preload duration             : 192 ms\nTitle                                    : English\n\nText #1\nID                                       : 2\nFormat                                   : SubRip\nDuration                                 : 1h 30mn\nBit rate                                 : 0 bps\nCompression mode                         : Lossless\nStream size                              : 119 Bytes (0%)\nTitle                                    : ENGLISH-FORCED\n\nText #2\nID                                       : 3\nFormat                                   : SubRip\nDuration                                 : 1h 30mn\nBit rate                                 : 86 bps\nCompression mode                         : Lossless\nStream size                              : 56.6 KiB (0%)\nTitle                                    : ENGLISH","torrent":{"xt":"urn:btih:4b6ccd0691c9c7570362ada356e203b62455486f","amp;dn":"Bayonetta.Bloody.Fate.2013.BRRip.XviD.AC3-playXD","amp;tr":["udp%3A%2F%2Ftracker.openbittorrent.com%3A80","udp%3A%2F%2Fopen.demonii.com%3A1337","udp%3A%2F%2Ftracker.coppersurfer.tk%3A6969","udp%3A%2F%2Fexodus.desync.com%3A6969"],"infoHash":"4b6ccd0691c9c7570362ada356e203b62455486f","infoHashBuffer":{"type":"Buffer","data":[75,108,205,6,145,201,199,87,3,98,173,163,86,226,3,182,36,85,72,111]},"announce":[],"urlList":[]}}